<?xml version="1.0" standalone="no"?><svg xmlns:xlink="http://www.w3.org/1999/xlink" xmlns="http://www.w3.org/2000/svg" viewBox="0 0 1000 1000" preserveAspectRatio="xMaxYMax slice"><g transform="scale(1.5600624024960998)"><rect x="0" y="0" width="641" height="641" fill="#424242"/><rect x="0" y="0" width="128.2" height="128.2" fill="#424242"/><g transform="translate(0,0) scale(3.2049999999999996) rotate(0)"><path fill-rule="evenodd" clip-rule="evenodd" d="M10 20C15.5228 20 20 15.5228 20 10C20 4.47715 15.5228 0 10 0C4.47715 0 0 4.47715 0 10C0 15.5228 4.47715 20 10 20ZM10 17C13.866 17 17 13.866 17 10C17 6.13401 13.866 3 10 3C6.13401 3 3 6.13401 3 10C3 13.866 6.13401 17 10 17Z" fill="#404f59"/></g><g transform="translate(64.1,0) scale(3.2049999999999996) rotate(0)"><path d="M10 0H20V10L10 20H0V10L10 0Z" fill="#2bab63"/></g><g transform="translate(0,64.1) scale(3.2049999999999996) rotate(0)"><path d="M10 0H20L0 20V10L10 0Z" fill="#414b51"/><path d="M20 10V20H10L20 10Z" fill="#414b51"/></g><g transform="translate(64.1,64.1) scale(3.2049999999999996) rotate(0)"><path d="M10 0H20L0 20V10L10 0Z" fill="#3c6f8f"/><path d="M20 10V20H10L20 10Z" fill="#3c6f8f"/></g><path d="M 128.2 128.2 A 128.2 128.2 0 0 1  256.4 0 L 128.2 128.2 A 128.2 128.2 0 0 0 256.4 0" fill="#df8761"/><rect x="256.4" y="0" width="128.2" height="128.2" fill="#424242"/><g transform="translate(256.4,0) scale(3.2049999999999996) rotate(0)"><path d="M10 0L20 10L10 20L0 10L10 0Z" fill="#c27a5b"/></g><polygon points="384.6,0 384.6,64.1 320.5,64.1" fill="#34a4ea"/><g transform="translate(256.4,64.1) scale(3.2049999999999996) rotate(0)"><path d="M10 0L20 10L10 20L0 10L10 0Z" fill="#613e77"/></g><g transform="translate(320.5,64.1) scale(3.2049999999999996) rotate(0)"><path d="M5 0H10L5 5L0 10V5L5 0Z" fill="#5a3f6a"/><path d="M20 15V20H15L20 15Z" fill="#5a3f6a"/><path d="M20 5V10L15 15L10 20H5L20 5Z" fill="#5a3f6a"/><path d="M15 0H20L5 15.0002L0 20.0002V15.0002L15 0Z" fill="#5a3f6a"/></g><rect x="384.59999999999997" y="0" width="128.2" height="128.2" fill="#424242"/><g transform="translate(384.6,0) scale(3.2049999999999996) rotate(0)"><rect width="20" height="2" fill="#53433c"/><rect y="4" width="20" height="2" fill="#53433c"/><rect y="8" width="20" height="2" fill="#53433c"/><rect y="12" width="20" height="2" fill="#53433c"/><rect y="16" width="20" height="2" fill="#53433c"/></g><rect x="448.7" y="0" width="64.1" height="64.1" fill="#3f5247"/><g transform="translate(384.6,64.1) scale(3.2049999999999996) rotate(0)"><path d="M10 0H20V10L10 20H0V10L10 0Z" fill="#328e5a"/></g><path d="M 448.7 64.1 A 64.1 64.1 0 0 0 512.8 128.2 L 512.8 64.1L448.7 64.1" fill="#a536ea"/><rect x="512.8" y="0" width="128.2" height="128.2" fill="#424242"/><path d="M 512.8 0 A 64.1 64.1 0 0 1  576.9 64.1 L 512.8 0 A 64.1 64.1 0 0 0 576.9 64.1" fill="#b034fd"/><circle cx="608.9499999999999" cy="32.05" r="32.05" fill="#dd8661"/><g transform="translate(512.8,64.1) scale(3.2049999999999996) rotate(0)"><path d="M10 0H20L0 20V10L10 0Z" fill="#2e9c5e"/><path d="M20 10V20H10L20 10Z" fill="#2e9c5e"/></g><g transform="translate(576.9,64.1) scale(3.2049999999999996) rotate(0)"><path d="M10 0H20V10L10 20H0V10L10 0Z" fill="#e88a63"/></g><rect x="0" y="128.2" width="128.2" height="128.2" fill="#424242"/><path d="M 0 192.29999999999998 A 64.1 64.1 0 0 1  64.1 128.2 L 64.1 192.29999999999998L0 192.29999999999998" fill="#d3815f"/><g transform="translate(64.1,128.2) scale(3.2049999999999996) rotate(0)"><path d="M5 0H10L5 5L0 10V5L5 0Z" fill="#974724"/><path d="M20 15V20H15L20 15Z" fill="#974724"/><path d="M20 5V10L15 15L10 20H5L20 5Z" fill="#974724"/><path d="M15 0H20L5 15.0002L0 20.0002V15.0002L15 0Z" fill="#974724"/></g><g transform="translate(0,192.3) scale(3.2049999999999996) rotate(0)"><path d="M10 0L20 10L10 20L0 10L10 0Z" fill="#30945c"/></g><path d="M 64.1 256.4 A 64.1 64.1 0 0 1  128.2 192.3 L 64.1 256.4 A 64.1 64.1 0 0 0 128.2 192.3" fill="#6e4533"/><rect x="128.2" y="128.2" width="128.2" height="128.2" fill="#424242"/><g transform="translate(128.2,128.2) scale(3.2049999999999996) rotate(0)"><rect width="20" height="2" fill="#fb4d01"/><rect y="4" width="20" height="2" fill="#fb4d01"/><rect y="8" width="20" height="2" fill="#fb4d01"/><rect y="12" width="20" height="2" fill="#fb4d01"/><rect y="16" width="20" height="2" fill="#fb4d01"/></g><g transform="translate(192.3,128.2) scale(3.2049999999999996) rotate(0)"><path d="M10 0H20V10L10 20H0V10L10 0Z" fill="#b27358"/></g><rect x="128.2" y="192.3" width="64.1" height="64.1" fill="#3d5949"/><g transform="translate(192.3,192.3) scale(3.2049999999999996) rotate(0)"><rect width="2" height="20" fill="#29b867"/><rect x="4" width="2" height="20" fill="#29b867"/><rect x="8" width="2" height="20" fill="#29b867"/><rect x="12" width="2" height="20" fill="#29b867"/><rect x="16" width="2" height="20" fill="#29b867"/></g><g transform="translate(256.4,128.2) scale(6.409999999999999) rotate(0)"><path d="M13 0H20V7L7 20H0V13L13 0Z" fill="#3b7498"/></g><rect x="384.59999999999997" y="128.2" width="128.2" height="128.2" fill="#424242"/><circle cx="416.65000000000003" cy="160.25" r="32.05" fill="#338758"/><g transform="translate(448.7,128.2) scale(3.2049999999999996) rotate(0)"><path d="M10 0L20 10L10 20L0 10L10 0Z" fill="#3d5b4a"/></g><rect x="384.6" y="192.3" width="64.1" height="64.1" fill="#8a6150"/><g transform="translate(448.7,192.3) scale(3.2049999999999996) rotate(0)"><rect width="20" height="2" fill="#924726"/><rect y="4" width="20" height="2" fill="#924726"/><rect y="8" width="20" height="2" fill="#924726"/><rect y="12" width="20" height="2" fill="#924726"/><rect y="16" width="20" height="2" fill="#924726"/></g><rect x="512.8" y="128.2" width="128.2" height="128.2" fill="#424242"/><g transform="translate(512.8,128.2) scale(3.2049999999999996) rotate(0)"><path fill-rule="evenodd" clip-rule="evenodd" d="M10 20C15.5228 20 20 15.5228 20 10C20 4.47715 15.5228 0 10 0C4.47715 0 0 4.47715 0 10C0 15.5228 4.47715 20 10 20ZM10 17C13.866 17 17 13.866 17 10C17 6.13401 13.866 3 10 3C6.13401 3 3 6.13401 3 10C3 13.866 6.13401 17 10 17Z" fill="#a935f0"/></g><polygon points="576.9,128.2 641,128.2 641,192.29999999999998" fill="#424547"/><rect x="512.8" y="192.3" width="64.1" height="64.1" fill="#bd4917"/><g transform="translate(576.9,192.3) scale(3.2049999999999996) rotate(0)"><path d="M10 0H20L0 20V10L10 0Z" fill="#ec4c07"/><path d="M20 10V20H10L20 10Z" fill="#ec4c07"/></g><g transform="translate(0,256.4) scale(6.409999999999999) rotate(0)"><path d="M10 0L20 10L10 20L0 10L10 0Z" fill="#8b6250"/></g><g transform="translate(128.2,256.4) scale(6.409999999999999) rotate(0)"><rect width="20" height="10" fill="#5b3f6c"/></g><rect x="256.4" y="256.4" width="128.2" height="128.2" fill="#424242"/><g transform="translate(256.4,256.4) scale(3.2049999999999996) rotate(0)"><rect width="2" height="20" fill="#3e5f74"/><rect x="4" width="2" height="20" fill="#3e5f74"/><rect x="8" width="2" height="20" fill="#3e5f74"/><rect x="12" width="2" height="20" fill="#3e5f74"/><rect x="16" width="2" height="20" fill="#3e5f74"/></g><g transform="translate(320.5,256.4) scale(3.2049999999999996) rotate(0)"><path d="M13 0H20V7L7 20H0V13L13 0Z" fill="#3c5f4b"/></g><g transform="translate(256.4,320.5) scale(3.2049999999999996) rotate(0)"><path d="M10 0H20V10L10 20H0V10L10 0Z" fill="#377452"/></g><polygon points="384.6,320.5 384.6,384.6 320.5,384.6" fill="#4f4058"/><g transform="translate(384.6,256.4) scale(6.409999999999999) rotate(0)"><path d="M13 0H20V7L7 20H0V13L13 0Z" fill="#377451"/></g><rect x="512.8" y="256.4" width="128.2" height="128.2" fill="#424242"/><g transform="translate(512.8,256.4) scale(3.2049999999999996) rotate(0)"><path d="M10 0H20L0 20V10L10 0Z" fill="#584c46"/><path d="M20 10V20H10L20 10Z" fill="#584c46"/></g><g transform="translate(576.9,256.4) scale(3.2049999999999996) rotate(0)"><path fill-rule="evenodd" clip-rule="evenodd" d="M10 20C15.5228 20 20 15.5228 20 10C20 4.47715 15.5228 0 10 0C4.47715 0 0 4.47715 0 10C0 15.5228 4.47715 20 10 20ZM10 17C13.866 17 17 13.866 17 10C17 6.13401 13.866 3 10 3C6.13401 3 3 6.13401 3 10C3 13.866 6.13401 17 10 17Z" fill="#3697d4"/></g><polygon points="512.8,320.5 576.9,320.5 512.8,384.6" fill="#378fc6"/><g transform="translate(576.9,320.5) scale(3.2049999999999996) rotate(0)"><path d="M10 0H20V10L10 20H0V10L10 0Z" fill="#414543"/></g><rect x="0" y="384.59999999999997" width="128.2" height="128.2" fill="#424242"/><g transform="translate(0,384.6) scale(3.2049999999999996) rotate(0)"><path d="M13 0H20V7L7 20H0V13L13 0Z" fill="#474240"/></g><g transform="translate(64.1,384.6) scale(3.2049999999999996) rotate(0)"><path d="M10 0L20 10L10 20L0 10L10 0Z" fill="#956652"/></g><g transform="translate(0,448.7) scale(3.2049999999999996) rotate(0)"><path d="M5 0H10L5 5L0 10V5L5 0Z" fill="#3d637a"/><path d="M20 15V20H15L20 15Z" fill="#3d637a"/><path d="M20 5V10L15 15L10 20H5L20 5Z" fill="#3d637a"/><path d="M15 0H20L5 15.0002L0 20.0002V15.0002L15 0Z" fill="#3d637a"/></g><g transform="translate(64.1,448.7) scale(3.2049999999999996) rotate(0)"><path d="M10 0H20V10L10 20H0V10L10 0Z" fill="#377451"/></g><rect x="128.2" y="384.59999999999997" width="128.2" height="128.2" fill="#424242"/><g transform="translate(128.2,384.6) scale(3.2049999999999996) rotate(0)"><path d="M10 0L20 10L10 20L0 10L10 0Z" fill="#514945"/></g><g transform="translate(192.3,384.6) scale(3.2049999999999996) rotate(0)"><path d="M5 0H10L5 5L0 10V5L5 0Z" fill="#6b544a"/><path d="M20 15V20H15L20 15Z" fill="#6b544a"/><path d="M20 5V10L15 15L10 20H5L20 5Z" fill="#6b544a"/><path d="M15 0H20L5 15.0002L0 20.0002V15.0002L15 0Z" fill="#6b544a"/></g><g transform="translate(128.2,448.7) scale(3.2049999999999996) rotate(0)"><rect width="2" height="20" fill="#8c4628"/><rect x="4" width="2" height="20" fill="#8c4628"/><rect x="8" width="2" height="20" fill="#8c4628"/><rect x="12" width="2" height="20" fill="#8c4628"/><rect x="16" width="2" height="20" fill="#8c4628"/></g><circle cx="224.35000000000002" cy="480.75" r="32.05" fill="#a44820"/><rect x="256.4" y="384.59999999999997" width="128.2" height="128.2" fill="#424242"/><g transform="translate(256.4,384.6) scale(3.2049999999999996) rotate(0)"><path d="M10 0L20 10L10 20L0 10L10 0Z" fill="#48414c"/></g><g transform="translate(320.5,384.6) scale(3.2049999999999996) rotate(0)"><path d="M10 0H20L0 20V10L10 0Z" fill="#b74919"/><path d="M20 10V20H10L20 10Z" fill="#b74919"/></g><g transform="translate(256.4,448.7) scale(3.2049999999999996) rotate(0)"><path d="M10 0H20L0 20V10L10 0Z" fill="#29b365"/><path d="M20 10V20H10L20 10Z" fill="#29b365"/></g><g transform="translate(320.5,448.7) scale(3.2049999999999996) rotate(0)"><path d="M10 0L20 10L10 20L0 10L10 0Z" fill="#3f4f46"/></g><g transform="translate(384.6,384.6) scale(6.409999999999999) rotate(0)"><path d="M10 0L20 10L10 20L0 10L10 0Z" fill="#71564b"/></g><rect x="512.8" y="384.59999999999997" width="128.2" height="128.2" fill="#424242"/><g transform="translate(512.8,384.6) scale(3.2049999999999996) rotate(0)"><rect width="20" height="10" fill="#6e4533"/></g><g transform="translate(576.9,384.6) scale(3.2049999999999996) rotate(0)"><path d="M10 0H20V10L10 20H0V10L10 0Z" fill="#4e433e"/></g><path d="M 512.8 448.7 A 64.1 64.1 0 0 1  576.9 512.8 L 512.8 448.7 A 64.1 64.1 0 0 0 576.9 512.8" fill="#bc4918"/><g transform="translate(576.9,448.7) scale(3.2049999999999996) rotate(0)"><path d="M5 0H10L5 5L0 10V5L5 0Z" fill="#71574b"/><path d="M20 15V20H15L20 15Z" fill="#71574b"/><path d="M20 5V10L15 15L10 20H5L20 5Z" fill="#71574b"/><path d="M15 0H20L5 15.0002L0 20.0002V15.0002L15 0Z" fill="#71574b"/></g><rect x="0" y="512.8" width="128.2" height="128.2" fill="#424242"/><g transform="translate(0,512.8) scale(3.2049999999999996) rotate(0)"><path fill-rule="evenodd" clip-rule="evenodd" d="M10 20C15.5228 20 20 15.5228 20 10C20 4.47715 15.5228 0 10 0C4.47715 0 0 4.47715 0 10C0 15.5228 4.47715 20 10 20ZM10 17C13.866 17 17 13.866 17 10C17 6.13401 13.866 3 10 3C6.13401 3 3 6.13401 3 10C3 13.866 6.13401 17 10 17Z" fill="#5d4439"/></g><path d="M 64.1 576.9 A 64.1 64.1 0 0 1  128.2 512.8 L 64.1 576.9 A 64.1 64.1 0 0 0 128.2 512.8" fill="#2f9a5d"/><g transform="translate(0,576.9) scale(3.2049999999999996) rotate(0)"><path d="M5 0H10L5 5L0 10V5L5 0Z" fill="#be4917"/><path d="M20 15V20H15L20 15Z" fill="#be4917"/><path d="M20 5V10L15 15L10 20H5L20 5Z" fill="#be4917"/><path d="M15 0H20L5 15.0002L0 20.0002V15.0002L15 0Z" fill="#be4917"/></g><g transform="translate(64.1,576.9) scale(3.2049999999999996) rotate(0)"><rect width="2" height="20" fill="#3984b3"/><rect x="4" width="2" height="20" fill="#3984b3"/><rect x="8" width="2" height="20" fill="#3984b3"/><rect x="12" width="2" height="20" fill="#3984b3"/><rect x="16" width="2" height="20" fill="#3984b3"/></g><rect x="128.2" y="512.8" width="128.2" height="128.2" fill="#424242"/><path d="M 128.2 512.8 A 64.1 64.1 0 0 1  192.29999999999998 576.9 L 128.2 512.8 A 64.1 64.1 0 0 0 192.29999999999998 576.9" fill="#3e5448"/><g transform="translate(192.3,512.8) scale(3.2049999999999996) rotate(0)"><path d="M10 0L20 10L10 20L0 10L10 0Z" fill="#3983b1"/></g><g transform="translate(128.2,576.9) scale(3.2049999999999996) rotate(0)"><path d="M10 0H20V10L10 20H0V10L10 0Z" fill="#d94b0d"/></g><g transform="translate(192.3,576.9) scale(3.2049999999999996) rotate(0)"><path d="M5 0H10L5 5L0 10V5L5 0Z" fill="#3f5665"/><path d="M20 15V20H15L20 15Z" fill="#3f5665"/><path d="M20 5V10L15 15L10 20H5L20 5Z" fill="#3f5665"/><path d="M15 0H20L5 15.0002L0 20.0002V15.0002L15 0Z" fill="#3f5665"/></g><circle cx="320.5" cy="576.9" r="64.1" fill="#34a4e9"/><rect x="384.59999999999997" y="512.8" width="128.2" height="128.2" fill="#424242"/><circle cx="416.65000000000003" cy="544.8499999999999" r="32.05" fill="#de4b0c"/><g transform="translate(448.7,512.8) scale(3.2049999999999996) rotate(0)"><path d="M5 0H10L5 5L0 10V5L5 0Z" fill="#3b7498"/><path d="M20 15V20H15L20 15Z" fill="#3b7498"/><path d="M20 5V10L15 15L10 20H5L20 5Z" fill="#3b7498"/><path d="M15 0H20L5 15.0002L0 20.0002V15.0002L15 0Z" fill="#3b7498"/></g><path d="M 384.6 576.9 A 64.1 64.1 0 0 1  448.70000000000005 641 L 384.6 576.9 A 64.1 64.1 0 0 0 448.70000000000005 641" fill="#3b7397"/><path d="M 448.7 576.9 A 64.1 64.1 0 0 1  512.8 641 L 448.7 576.9 A 64.1 64.1 0 0 0 512.8 641" fill="#604438"/><rect x="512.8" y="512.8" width="128.2" height="128.2" fill="#424242"/><g transform="translate(512.8,512.8) scale(3.2049999999999996) rotate(0)"><rect width="20" height="2" fill="#3a789f"/><rect y="4" width="20" height="2" fill="#3a789f"/><rect y="8" width="20" height="2" fill="#3a789f"/><rect y="12" width="20" height="2" fill="#3a789f"/><rect y="16" width="20" height="2" fill="#3a789f"/></g><g transform="translate(576.9,512.8) scale(3.2049999999999996) rotate(0)"><path d="M10 0H20V10L10 20H0V10L10 0Z" fill="#76594c"/></g><g transform="translate(512.8,576.9) scale(3.2049999999999996) rotate(0)"><path d="M13 0H20V7L7 20H0V13L13 0Z" fill="#a16c55"/></g><g transform="translate(576.9,576.9) scale(3.2049999999999996) rotate(0)"><rect width="2" height="20" fill="#40525d"/><rect x="4" width="2" height="20" fill="#40525d"/><rect x="8" width="2" height="20" fill="#40525d"/><rect x="12" width="2" height="20" fill="#40525d"/><rect x="16" width="2" height="20" fill="#40525d"/></g></g></svg>