<svg xmlns="http://www.w3.org/2000/svg" enable-background="new 0 0 32 32" viewBox="0 0 32 32" id="itch-dot-io"><path fill="#FFE6E2" d="M26,32H6c-3.314,0-6-2.686-6-6V6c0-3.314,2.686-6,6-6h20c3.314,0,6,2.686,6,6v20C32,29.314,29.314,32,26,32z"></path><path fill="#FC573B" d="M9.897,22.726c1.302,0.302,3.697,0.44,6.101,0.441h0.001c2.403-0.001,4.799-0.139,6.101-0.441c0.84-0.853,0.672-4.327,0.686-5.876c-0.001-0.299-0.003-0.513-0.004-0.775v-0.003c-0.011-0.515-0.041-1.22-0.112-1.959c-0.051,0.017-0.115,0.035-0.175,0.035c-0.001,0-0.001,0-0.001,0c-0.506,0-0.965-0.201-1.299-0.528h0.001c-0.121-0.118-0.239-0.244-0.323-0.392H20.87c-0.085,0.147-0.177,0.274-0.297,0.392c-0.335,0.326-0.793,0.528-1.299,0.528c-0.001,0-0.001,0-0.002,0c-0.505,0-0.963-0.202-1.298-0.528c-0.119-0.115-0.223-0.247-0.307-0.391l-0.005-0.009c-0.088,0.153-0.191,0.284-0.309,0.4c-0.335,0.326-0.793,0.528-1.299,0.528c-0.001,0-0.001,0-0.002,0c-0.017,0-0.035-0.001-0.053-0.001h-0.001c-0.017,0.001-0.035,0.001-0.053,0.001c-0.001,0-0.001,0-0.002,0c-0.506,0-0.965-0.201-1.299-0.528h0.001c-0.119-0.115-0.221-0.247-0.304-0.391l-0.005-0.009l0.001,0.001c-0.089,0.153-0.192,0.284-0.311,0.399l-0.001,0.001c-0.335,0.325-0.793,0.527-1.298,0.527c-0.001,0-0.001,0-0.002,0c-0.506,0-0.965-0.201-1.299-0.528c-0.121-0.118-0.213-0.244-0.297-0.392h-0.001c-0.084,0.147-0.201,0.273-0.323,0.392c-0.335,0.326-0.793,0.527-1.299,0.527c-0.001,0-0.001,0-0.002,0c-0.061,0-0.124-0.017-0.175-0.035c-0.071,0.738-0.101,1.444-0.112,1.959v0.003c-0.001,0.262-0.003,0.476-0.004,0.775C9.225,18.4,9.057,21.873,9.897,22.726z M10.306,19.565l0.749-2.673c0.696-1.947,1.695-1.949,1.946-1.949v0.001h0.001c0.529,0.001,0.999,0,1.581,0.633c0.458-0.048,0.937-0.072,1.417-0.071H16c0.479-0.001,0.958,0.023,1.417,0.071c0.582-0.633,1.052-0.632,1.581-0.633h0.001v-0.001c0.25,0,1.25,0,1.947,1.949l0.748,2.673c0.555,1.989-0.177,2.038-1.091,2.039c-1.354-0.05-2.104-1.03-2.104-2.009c-0.749,0.122-1.624,0.183-2.499,0.183h-0.001c-0.875,0-1.749-0.061-2.499-0.183c0,0.979-0.75,1.959-2.104,2.009C10.484,21.602,9.751,21.553,10.306,19.565z"></path><polygon fill="#FD907E" points="15.999 16.474 15.999 16.474 15.999 16.475 15.999 16.475 15.999 16.475"></polygon><path fill="#FD907E" d="M9.549 13.63c.886 0 1.624-.731 1.624-1.599 0 .868.713 1.599 1.599 1.599.886 0 1.576-.731 1.576-1.599 0 .868.758 1.599 1.644 1.599h.016c.886 0 1.644-.731 1.644-1.599 0 .868.69 1.599 1.576 1.599.886 0 1.599-.731 1.599-1.599 0 .868.738 1.599 1.624 1.599.738 0 1.55-.761 1.55-1.627V11.32c-.013-.412-1.388-1.986-2.086-2.398-2.169-.076-3.673-.089-5.914-.088-2.241.001-5.297.035-5.914.088h-.001C9.388 9.335 8.013 10.908 8 11.32v.683C8 12.869 8.812 13.63 9.549 13.63zM15.25 19.015c0 .038.374.023.749.005h.001c.375.017.749.033.749-.005v-.81l.933.037c-.256-.463-1.68-1.766-1.682-1.767-.003.003-1.425 1.304-1.682 1.767l.933-.037V19.015z"></path></svg>