<svg xmlns="http://www.w3.org/2000/svg" viewBox="0 0 24 24" id="google-playstore"><defs><linearGradient id="a" x1="9.58" x2="9.58" y1="17.71" y2="6.31" gradientUnits="userSpaceOnUse"><stop offset="0" stop-color="#00e4ff"></stop><stop offset=".99" stop-color="#0cf"></stop></linearGradient><linearGradient id="b" x1="13.03" x2="18.6" y1="11.87" y2="11.87" gradientUnits="userSpaceOnUse"><stop offset=".01" stop-color="#ffbc00"></stop><stop offset="1" stop-color="#ffe100"></stop></linearGradient><linearGradient id="c" x1="11.02" x2="11.02" y1="11.74" y2="5.4" gradientUnits="userSpaceOnUse"><stop offset="0" stop-color="#00f055"></stop><stop offset=".99" stop-color="#00e05a"></stop></linearGradient><linearGradient id="d" x1="11.26" x2="11.26" y1="18.6" y2="11.74" gradientUnits="userSpaceOnUse"><stop offset=".01" stop-color="#de1646"></stop><stop offset="1" stop-color="#ff2b43"></stop></linearGradient></defs><g><g><path fill="none" d="M0 0h24v24H0z"></path><path fill="#fff" d="M1 12C1 4 4 1 12 1s11 3 11 11-3 11-11 11S1 20 1 12"></path><path fill="url(#a)" d="m13 11.74-6.41 6.38A1.53 1.53 0 0 1 6.12 17V7a1.53 1.53 0 0 1 .49-1.13Z"></path><path fill="url(#b)" d="M18.6 12a1.57 1.57 0 0 1-.84 1.38l-1.83 1-2.27-2.08-.66-.56 2.41-2.39 2.32 1.27A1.57 1.57 0 0 1 18.6 12Z"></path><path fill="url(#c)" d="M13 11.74 6.61 5.86a1.79 1.79 0 0 1 .3-.22 1.69 1.69 0 0 1 1.7 0l6.83 3.73Z"></path><path fill="url(#d)" d="m15.93 14.39-7.32 4a1.76 1.76 0 0 1-.83.21 1.61 1.61 0 0 1-.87-.24 1.91 1.91 0 0 1-.32-.24L13 11.74l.63.57Z"></path></g></g></svg>