<svg xmlns="http://www.w3.org/2000/svg"  viewBox="0 0 48 48" width="48px" height="48px" baseProfile="basic"><path d="M44,24H4c0,0.338,0,1.662,0,2c0,11.028,8.972,20,20,20s20-8.972,20-20C44,25.662,44,24.338,44,24z"/><circle cx="24" cy="24" r="19" fill="#fff"/><path d="M24,44C12.972,44,4,35.028,4,24S12.972,4,24,4s20,8.972,20,20S35.028,44,24,44z M24,6C14.075,6,6,14.075,6,24	s8.075,18,18,18s18-8.075,18-18S33.925,6,24,6z"/><path d="M24,11.375c0,0-13.5,2.625-13.875,15.5c0,0,2.898-5.783,6.625-6.75c0.556-0.144,0.875,0.375,0.875,2.125v8.25	c0,0.552-0.448,1-1,1h-2c0,0,2.625,4.125,9.375,4.875l3-3.125l3.125,1.5c0,0,5-1.75,7.75-7.625c0,0-2.185,2.375-4.815,2.818	c-0.617,0.104-1.185-0.362-1.185-0.988V18c0,0,0.875-2.375,3-4.875c0,0-4.125,0.375-7.125,3.75c0,0-1.125-1.125-2.375-0.875	c0,0,1.625,1.375,1.75,3.25v9.375c0,0-1.507,1.241-3.476,1.484c-0.606,0.075-1.149-0.382-1.149-0.993V17.625	c0,0-1.875-0.375-1.5-2.25S24,11.375,24,11.375z"/></svg>